<svg width="2387" height="1012" xmlns="http://www.w3.org/2000/svg" xmlns:xlink="http://www.w3.org/1999/xlink" xml:space="preserve" overflow="hidden"><g transform="translate(-664 -792)"><path d="M741.5 1435C741.5 1459.02 819.402 1478.5 915.5 1478.5 1011.6 1478.5 1089.5 1459.02 1089.5 1435L1089.5 1757C1089.5 1781.02 1011.6 1800.5 915.5 1800.5 819.402 1800.5 741.5 1781.02 741.5 1757Z" fill="#FFFFFF" fill-rule="evenodd"/><path d="M741.5 1435C741.5 1410.98 819.402 1391.5 915.5 1391.5 1011.6 1391.5 1089.5 1410.98 1089.5 1435 1089.5 1459.02 1011.6 1478.5 915.5 1478.5 819.402 1478.5 741.5 1459.02 741.5 1435Z" fill="#FFFFFF" fill-rule="evenodd"/><path d="M1089.5 1435C1089.5 1459.02 1011.6 1478.5 915.5 1478.5 819.402 1478.5 741.5 1459.02 741.5 1435 741.5 1410.98 819.402 1391.5 915.5 1391.5 1011.6 1391.5 1089.5 1410.98 1089.5 1435L1089.5 1757C1089.5 1781.02 1011.6 1800.5 915.5 1800.5 819.402 1800.5 741.5 1781.02 741.5 1757L741.5 1435" stroke="#172C51" stroke-width="6.875" stroke-miterlimit="8" fill="none" fill-rule="evenodd"/><text font-family="Times New Roman,Times New Roman_MSFontService,sans-serif" font-style="italic" font-weight="400" font-size="83" transform="matrix(1 0 0 1 820.881 1609)">Notes </text><text font-family="Times New Roman,Times New Roman_MSFontService,sans-serif" font-style="italic" font-weight="400" font-size="64" transform="matrix(1 0 0 1 775.62 1690)">Repository</text><path d="M667.5 858.001C667.5 833.976 686.976 814.5 711.001 814.5L1120 814.5C1144.02 814.5 1163.5 833.976 1163.5 858.001L1163.5 1032C1163.5 1056.02 1144.02 1075.5 1120 1075.5L711.001 1075.5C686.976 1075.5 667.5 1056.02 667.5 1032Z" stroke="#000000" stroke-width="6.875" stroke-miterlimit="8" fill="#FFFFFF" fill-rule="evenodd"/><text font-family="Times New Roman,Times New Roman_MSFontService,sans-serif" font-style="italic" font-weight="400" font-size="83" transform="matrix(1 0 0 1 830.047 926)">build</text><text font-family="Times New Roman,Times New Roman_MSFontService,sans-serif" font-style="italic" font-weight="400" font-size="83" transform="matrix(1 0 0 1 830.047 1025)">DAG</text><path d="M1815.5 858.001C1815.5 833.976 1834.98 814.5 1859 814.5L2269 814.5C2293.02 814.5 2312.5 833.976 2312.5 858.001L2312.5 1032C2312.5 1056.02 2293.02 1075.5 2269 1075.5L1859 1075.5C1834.98 1075.5 1815.5 1056.02 1815.5 1032Z" stroke="#000000" stroke-width="6.875" stroke-miterlimit="8" fill="#FFFFFF" fill-rule="evenodd"/><text font-family="Times New Roman,Times New Roman_MSFontService,sans-serif" font-style="italic" font-weight="400" font-size="83" transform="matrix(1 0 0 1 1944.54 926)">d</text><text font-family="Times New Roman,Times New Roman_MSFontService,sans-serif" font-style="italic" font-weight="400" font-size="83" transform="matrix(1 0 0 1 1985.79 926)">isplay </text><text font-family="Times New Roman,Times New Roman_MSFontService,sans-serif" font-style="italic" font-weight="400" font-size="83" transform="matrix(1 0 0 1 1978.92 1025)">DAG</text><path d="M1163.5 942.063 1808.8 942.063 1808.8 948.938 1163.5 948.938ZM1769.22 919.579 1815.88 945.501 1769.22 971.422C1767.56 972.344 1765.47 971.746 1764.55 970.087 1763.62 968.427 1764.22 966.334 1765.88 965.412L1807.13 942.496 1807.13 948.505 1765.88 925.589C1764.22 924.667 1763.62 922.574 1764.55 920.914 1765.47 919.255 1767.56 918.657 1769.22 919.579Z"/><rect x="1367.5" y="801.5" width="244" height="131" stroke="#000000" stroke-width="6.875" stroke-miterlimit="8" fill="#FFF2CC"/><text font-family="Times New Roman,Times New Roman_MSFontService,sans-serif" font-style="italic" font-weight="400" font-size="83" transform="matrix(1 0 0 1 1413.65 897)">Json</text><path d="M3.4375-3.93546e-06 3.43785 308.147-3.43715 308.147-3.4375 3.93546e-06ZM25.9219 268.566 0.000360507 315.225-25.9213 268.566C-26.8433 266.907-26.2453 264.814-24.5858 263.892-22.9262 262.97-20.8334 263.568-19.9114 265.228L3.00527 306.478-3.00456 306.478 19.9121 265.228C20.834 263.568 22.9268 262.97 24.5864 263.892 26.2459 264.814 26.8439 266.907 25.9219 268.566Z" transform="matrix(1 0 0 -1 915.5 1390.73)"/><rect x="928.5" y="1206.5" width="316" height="118" stroke="#000000" stroke-width="6.875" stroke-miterlimit="8" fill="#FFF2CC"/><text font-family="Times New Roman,Times New Roman_MSFontService,sans-serif" font-style="italic" font-weight="400" font-size="55" transform="matrix(1 0 0 1 970.095 1285)">markdown</text><path d="M1815.5 1250.17C1815.5 1226.05 1835.05 1206.5 1859.17 1206.5L2268.83 1206.5C2292.95 1206.5 2312.5 1226.05 2312.5 1250.17L2312.5 1424.83C2312.5 1448.95 2292.95 1468.5 2268.83 1468.5L1859.17 1468.5C1835.05 1468.5 1815.5 1448.95 1815.5 1424.83Z" stroke="#000000" stroke-width="6.875" stroke-miterlimit="8" fill="#FFFFFF" fill-rule="evenodd"/><text font-family="Times New Roman,Times New Roman_MSFontService,sans-serif" font-style="italic" font-weight="400" font-size="83" transform="matrix(1 0 0 1 1955.24 1318)">search</text><text font-family="Times New Roman,Times New Roman_MSFontService,sans-serif" font-style="italic" font-weight="400" font-size="83" transform="matrix(1 0 0 1 1916.28 1417)">Keyword</text><path d="M0.000889834-3.4375 893.551-3.20619 893.549 3.66881-0.000889834 3.4375ZM853.97-25.7005 900.622 0.233137 853.956 26.1426C852.296 27.0642 850.204 26.4657 849.282 24.8059 848.361 23.1461 848.959 21.0535 850.619 20.1319L891.875-2.77404 891.873 3.23579 850.629-19.6916C848.97-20.614 848.372-22.7069 849.295-24.3662 850.217-26.0255 852.31-26.6229 853.97-25.7005Z" transform="matrix(1 0 0 -1 915.5 1337.73)"/><path d="M2312.5 932.5C2342.88 932.5 2367.5 961.239 2367.5 996.691L2367.5 1283.31C2367.5 1318.76 2342.88 1347.5 2312.5 1347.5" stroke="#000000" stroke-width="6.875" stroke-miterlimit="8" fill="none" fill-rule="evenodd"/><path d="M2367.5 1139.06 2722.5 1139.06 2722.5 1145.94 2367.5 1145.94ZM2682.92 1116.58 2729.58 1142.5 2682.92 1168.42C2681.26 1169.34 2679.17 1168.75 2678.25 1167.09 2677.33 1165.43 2677.92 1163.33 2679.58 1162.41L2720.83 1139.5 2720.83 1145.51 2679.58 1122.59C2677.92 1121.67 2677.33 1119.57 2678.25 1117.91 2679.17 1116.25 2681.26 1115.66 2682.92 1116.58Z"/><rect x="2380.5" y="949.5" width="244" height="131" stroke="#000000" stroke-width="6.875" stroke-miterlimit="8" fill="#FFF2CC"/><text font-family="Times New Roman,Times New Roman_MSFontService,sans-serif" font-style="italic" font-weight="400" font-size="83" transform="matrix(1 0 0 1 2426.53 1045)">SVG</text><path d="M2729.5 932.5 3039.5 932.5 3039.5 1339.83 2987.83 1391.5 2729.5 1391.5Z" fill="#FFFFFF" fill-rule="evenodd"/><path d="M2987.83 1391.5 2998.17 1350.17 3039.5 1339.83Z" fill="#CDCDCD" fill-rule="evenodd"/><path d="M2987.83 1391.5 2998.17 1350.17 3039.5 1339.83 2987.83 1391.5 2729.5 1391.5 2729.5 932.5 3039.5 932.5 3039.5 1339.83" stroke="#000000" stroke-width="6.875" stroke-miterlimit="8" fill="none" fill-rule="evenodd"/><text font-family="Times New Roman,Times New Roman_MSFontService,sans-serif" font-style="italic" font-weight="400" font-size="83" transform="matrix(1 0 0 1 2801.52 1166)">Html</text></g></svg>