<?xml version="1.0" encoding="UTF-8" standalone="no"?>
<svg width="244pt" height="244pt" viewBox="0.00 0.00 244.00 244.00" xmlns="http://www.w3.org/2000/svg" xmlns:xlink="http://www.w3.org/1999/xlink">
<g transform="translate(4 240)"> 
<g style="fill:none;stroke:black">
<path d="M10,-122C28,-140 97,-209 114,-226"/>
<path d="M11,-121C35,-135 145,-198 169,-212"/>
<path d="M112,-7C101,-10 78,-17 68,-19"/>
<path d="M113,-9C97,-18 42,-50 26,-59"/>
<path d="M114,-10C97,-28 27,-97 10,-114"/>
<path d="M115,-11C101,-35 38,-145 24,-169"/>
<path d="M117,-12C109,-42 71,-181 63,-210"/>
<path d="M118,-12C118,-42 118,-193 118,-224"/>
<path d="M119,-12C127,-42 165,-181 173,-210"/>
<path d="M12,-118C42,-118 193,-118 224,-118"/>
<path d="M12,-119C42,-127 181,-165 210,-173"/>
<path d="M121,-11C135,-35 198,-145 212,-169"/>
<path d="M122,-10C140,-28 209,-97 226,-114"/>
<path d="M123,-227C139,-218 194,-186 210,-177"/>
<path d="M124,-229C135,-226 158,-219 168,-217"/>
<path d="M168,-20C157,-17 134,-10 124,-8"/>
<path d="M169,-21C150,-21 87,-21 68,-21"/>
<path d="M169,-22C145,-29 50,-54 27,-61"/>
<path d="M169,-24C145,-38 35,-101 11,-115"/>
<path d="M170,-25C149,-46 46,-149 25,-170"/>
<path d="M171,-26C156,-53 81,-183 65,-210"/>
<path d="M173,-27C165,-57 127,-196 119,-225"/>
<path d="M174,-27C174,-54 174,-181 174,-209"/>
<path d="M175,-26C182,-50 207,-145 214,-168"/>
<path d="M177,-26C186,-42 218,-97 227,-113"/>
<path d="M178,-211C186,-203 203,-186 211,-178"/>
<path d="M20,-68C17,-79 10,-102 8,-112"/>
<path d="M209,-62C182,-62 55,-62 27,-62"/>
<path d="M209,-63C179,-71 40,-109 11,-117"/>
<path d="M21,-67C21,-86 21,-149 21,-168"/>
<path d="M210,-59C194,-50 139,-18 123,-9"/>
<path d="M210,-61C186,-54 91,-29 68,-22"/>
<path d="M210,-65C183,-80 53,-155 26,-171"/>
<path d="M211,-58C203,-50 186,-33 178,-25"/>
<path d="M211,-66C190,-87 87,-190 66,-211"/>
<path d="M212,-67C198,-91 135,-201 121,-225"/>
<path d="M214,-67C207,-91 182,-186 175,-209"/>
<path d="M215,-67C215,-86 215,-149 215,-168"/>
<path d="M216,-68C219,-79 226,-102 228,-112"/>
<path d="M22,-67C29,-91 54,-186 61,-209"/>
<path d="M226,-122C209,-140 139,-209 122,-226"/>
<path d="M227,-123C218,-139 186,-194 177,-210"/>
<path d="M229,-124C226,-135 219,-158 217,-168"/>
<path d="M24,-67C38,-91 101,-201 115,-225"/>
<path d="M25,-178C33,-186 50,-203 58,-211"/>
<path d="M25,-66C46,-87 149,-190 170,-211"/>
<path d="M26,-175C50,-182 145,-207 168,-214"/>
<path d="M26,-177C42,-186 97,-218 113,-227"/>
<path d="M26,-65C53,-80 183,-155 210,-171"/>
<path d="M27,-173C57,-165 196,-127 225,-119"/>
<path d="M27,-174C54,-174 181,-174 209,-174"/>
<path d="M27,-63C57,-71 196,-109 225,-117"/>
<path d="M58,-25C50,-33 33,-50 25,-58"/>
<path d="M59,-26C50,-42 18,-97 9,-113"/>
<path d="M61,-26C54,-50 29,-145 22,-168"/>
<path d="M62,-27C62,-54 62,-181 62,-209"/>
<path d="M63,-27C71,-57 109,-196 117,-225"/>
<path d="M65,-26C80,-53 155,-183 171,-210"/>
<path d="M66,-25C87,-46 190,-149 211,-170"/>
<path d="M67,-212C91,-198 201,-135 225,-121"/>
<path d="M67,-214C91,-207 186,-182 209,-175"/>
<path d="M67,-215C86,-215 149,-215 168,-215"/>
<path d="M67,-24C91,-38 201,-101 225,-115"/>
<path d="M68,-216C79,-219 102,-226 112,-228"/>
<path d="M7,-124C10,-135 17,-158 19,-168"/>
<path d="M9,-123C18,-139 50,-194 59,-210"/>
</g>
<g style="fill:blue;stroke:black">
<circle cx="118" cy="-230" r="5.4"/>
<circle cx="118" cy="-6" r="5.4"/>
<circle cx="174" cy="-21" r="5.4"/>
<circle cx="174" cy="-215" r="5.4"/>
<circle cx="21" cy="-174" r="5.4"/>
<circle cx="21" cy="-62" r="5.4"/>
<circle cx="215" cy="-174" r="5.4"/>
<circle cx="215" cy="-62" r="5.4"/>
<circle cx="230" cy="-118" r="5.4"/>
<circle cx="6" cy="-118" r="5.4"/>
<circle cx="62" cy="-21" r="5.4"/>
<circle cx="62" cy="-215" r="5.4"/>
</g></g></svg>